<?xml version="1.0" encoding="UTF-8"?>
<svg width="22.921mm" height="18.611mm" version="1.1" viewBox="0 0 22.921 18.611" xmlns="http://www.w3.org/2000/svg">
 <g fill="#fff">
  <path d="m3.65 8.224h2.0294c-0.30163 0.82815-1.098 1.4208-2.0294 1.4208-1.1933 0-2.1616-0.97102-2.1616-2.1616s0.97102-2.1616 2.1616-2.1616c0.61383 0 1.1695 0.25665 1.561 0.6694l1.2224-0.85725c-0.6694-0.7911-1.6695-1.2965-2.7834-1.2965-2.0108 0-3.646 1.6351-3.646 3.646 0 2.0082 1.6351 3.646 3.646 3.646 0.80698 0 1.5558-0.26458 2.1616-0.71173v0.71173c0 1.1933-0.97102 2.1616-2.1616 2.1616-1.1933 0-2.1616-0.97102-2.1616-2.1616h-1.4843c0 2.0082 1.6351 3.646 3.646 3.646 2.0082 0 3.646-1.6351 3.646-3.646v-4.3868h-3.646z"/>
  <path d="m14.52 10.889c0-0.49742-0.40481-0.90223-0.90223-0.90223h-1.1589v2.577h0.54505v-0.77258h0.49212l0.52388 0.77258h0.65881l-0.60854-0.89429c0.27252-0.15875 0.44979-0.45244 0.44979-0.78052zm-0.90488 0.35454h-0.61118v-0.71173h0.61118c0.19844 0 0.35719 0.1614 0.35719 0.35719 3e-3 0.19844-0.1561 0.35454-0.35719 0.35454z"/>
  <path d="m18.49 12.561h0.54769v-1.016h1.0795v-0.54504h-1.0795v-0.47096h1.2462v-0.54504h-1.7939z"/>
  <path d="m21.13 12.561h0.54769v-1.016h1.0795v-0.54504h-1.0795v-0.47096h1.2462v-0.54504h-1.7939z"/>
  <path d="m10.33 11.545h0.74348c-0.11113 0.30427-0.40217 0.51858-0.74348 0.51858-0.43656 0-0.7911-0.35454-0.7911-0.79375 0-0.43656 0.35454-0.7911 0.7911-0.7911 0.2249 0 0.42863 0.0926 0.56885 0.24606l0.45244-0.31221c-0.24077-0.29369-0.61119-0.4789-1.0239-0.4789-0.73818 0-1.3361 0.59796-1.3361 1.3361 0 0.73819 0.59796 1.3388 1.3361 1.3388 0.64559 0 1.1827-0.45773 1.307-1.0636 0.0185-0.08731 0.0291-0.17992 0.0291-0.27252v-0.27252h-1.3362v0.54504z"/>
  <path d="m16.29 9.984-1.1165 2.577h2.6723l-1.1165-2.577zm-0.28311 2.032 0.50271-1.1589 0.50271 1.1589z"/>
  <path d="m13.93 8.282v-1.5399h-0.54504v1.5399c0 0.29633-0.24077 0.53975-0.53975 0.53975s-0.53975-0.24077-0.53975-0.53975v-1.5399h-0.54505v1.5399c0 0.59796 0.48684 1.0848 1.0848 1.0848 0.59795 0 1.0848-0.48683 1.0848-1.0848z"/>
  <path d="m17.11 8.031c0-0.71173-0.5768-1.2885-1.2885-1.2885h-0.98425v2.577h0.98425c0.71173 0 1.2885-0.57944 1.2885-1.2885zm-1.7277-0.74348h0.4392c0.41011 0 0.74348 0.33338 0.74348 0.74348s-0.33337 0.74348-0.74348 0.74348h-0.4392z"/>
  <path d="m22.38 6.743v1.5452l-1.1853-1.5452h-0.43921v2.577h0.54504v-1.5187l1.188 1.5187h0.43921v-2.577z"/>
  <path d="m9.92 9.359c0.34925 0 0.65617-0.19579 0.81227-0.48154 0.0714-0.13229 0.11377-0.2831 0.11377-0.4445v-1.6907h-1.0768v0.54504h0.53181v1.1456c0 0.20902-0.16933 0.381-0.381 0.381-0.21166 0-0.38364-0.16933-0.38364-0.381h-0.54505c0 0.51065 0.4154 0.92604 0.92869 0.92604z"/>
  <path d="m19.11 7.425-0.27252 0.4736-0.27252-0.4736-0.39688-0.68262h-0.62971l0.98425 1.7013 0.0423 0.07408v0.79904h0.54504v-0.79904l0.0423-0.07408 0.98425-1.7013h-0.63235z"/>
  <path d="m2.63 18.348v0.26367h2.1566v-0.26367z"/>
  <path d="m2.63 0v0.26562h2.1566v-0.26562z"/>
 </g>
</svg>
