<?xml version="1.0" encoding="UTF-8"?>
<svg width="132.82mm" height="28.853mm" version="1.1" viewBox="0 0 132.82 28.853" xmlns="http://www.w3.org/2000/svg">
 <g fill="#fff">
  <path d="m103.73 13.094c0-1.7224-1.4023-3.1247-3.1247-3.1247h-4.0058v8.9138h1.8865v-2.6749h1.6986l1.815 2.6749h2.2781l-2.1008-3.093c0.93927-0.5424 1.5531-1.5558 1.5531-2.6961zm-3.1274 1.2277h-2.1193v-2.4633h2.1193c0.68262 0 1.2382 0.55562 1.2382 1.2382 0 0.68527-0.5424 1.225-1.2382 1.225z"/>
  <path d="m119.36 11.856h4.3101v-1.8865h-6.1965v8.9138h1.8865v-3.5137h3.7333v-1.8865h-3.7333z"/>
  <path d="m128.51 11.856h4.3101v-1.8865h-6.1992v8.9138h1.8891v-3.5137h3.7333v-1.8865h-3.7333z"/>
  <path d="m89.252 15.37h2.5665c-0.38365 1.0504-1.3864 1.7965-2.5665 1.7965-1.5108 0-2.7358-1.225-2.7358-2.7437 0-1.5108 1.225-2.7358 2.7358-2.7358 0.77788 0 1.479 0.32544 1.9712 0.84931l1.569-1.0769c-0.83609-1.0186-2.114-1.6589-3.5401-1.6589-2.5559 0-4.6223 2.069-4.6223 4.6223 0 2.5559 2.069 4.6302 4.6223 4.6302 2.2304 0 4.0905-1.5822 4.527-3.683 0.0661-0.30427 0.0979-0.62177 0.0979-0.94721v-0.93927h-4.6223v1.8865z"/>
  <path d="m109.87 9.9685-3.8656 8.9138h9.2445l-3.8682-8.9138zm-0.98425 7.0273 1.741-4.0111 1.741 4.0111z"/>
  <path d="m17.066 15.214v-5.3287h-1.8891v5.3287c0 1.0292-0.83873 1.868-1.868 1.868s-1.868-0.83873-1.868-1.868v-5.3287h-1.8891v5.3287c0 2.069 1.6854 3.7544 3.7544 3.7544 2.0743 0 3.7597-1.6854 3.7597-3.7544z"/>
  <path d="m28.075 14.342c0-2.458-2.0002-4.4582-4.4582-4.4582h-3.4078v8.9138h3.4078c2.458 0.0026 4.4582-1.9976 4.4582-4.4556zm-5.9769-2.5691h1.5214c1.4182 0 2.5691 1.1536 2.5691 2.5691s-1.1536 2.5691-2.5691 2.5691h-1.5214z"/>
  <path d="m42.566 13.552 4.1063 5.2493h1.5161v-8.9165h-1.8891v5.3446l-4.1063-5.3446h-1.5134v8.9165h1.8865z"/>
  <path d="m3.2094 18.936c1.2118 0 2.2701-0.67469 2.8152-1.6669 0.24606-0.45508 0.38894-0.97896 0.38894-1.5372v-5.8499h-3.728v1.8865h1.8415v3.9608c0 0.72496-0.59002 1.315-1.3176 1.315-0.7329 0-1.3229-0.59002-1.3229-1.315h-1.8865c0 1.7754 1.4393 3.2068 3.2094 3.2068z"/>
  <path d="m31.726 9.8865h-2.1802l3.4052 5.8843 0.14552 0.254v2.7702h1.8838v-2.7702l0.14552-0.254 3.4078-5.8843h-2.1828l-1.3705 2.3627-0.94192 1.6378-0.94192-1.6378z"/>
  <path d="m66.408 11.576h5.3552c-0.79639 2.1828-2.8972 3.7465-5.3552 3.7465-3.1459 0-5.7044-2.5585-5.7044-5.7044s2.5585-5.7044 5.7044-5.7044c1.6192 0 3.085 0.67998 4.1169 1.7674l3.2279-2.2595c-1.7621-2.0902-4.4053-3.4211-7.3448-3.4211-5.3049 0-9.6176 4.3154-9.6176 9.6176 0 5.2996 4.3101 9.6176 9.6176 9.6176 2.1272 0 4.1063-0.69585 5.7044-1.8785v1.8785c0 3.1459-2.5585 5.7044-5.7044 5.7044s-5.7044-2.5585-5.7044-5.7044h-3.9132c0 5.2996 4.3101 9.6176 9.6176 9.6176 5.2996 0 9.6176-4.3154 9.6176-9.6176v-11.573h-9.6176z"/>
 </g>
</svg>
